<mxfile host="app.diagrams.net" modified="2023-07-28T12:28:57.434Z" agent="Mozilla/5.0 (Windows NT 10.0; Win64; x64; rv:109.0) Gecko/20100101 Firefox/115.0" etag="nIczx2ZgQwLsa5glmHuE" version="21.5.0" type="device">
  <diagram name="Seite-1" id="J0c_VTKExnBa9tAr_sIy">
    <mxGraphModel dx="1080" dy="512" grid="1" gridSize="10" guides="1" tooltips="1" connect="1" arrows="1" fold="1" page="1" pageScale="1" pageWidth="827" pageHeight="1169" math="0" shadow="0">
      <root>
        <mxCell id="0" />
        <mxCell id="1" parent="0" />
        <mxCell id="w9KCVopszYJ56_shnlxz-53" style="edgeStyle=orthogonalEdgeStyle;rounded=0;orthogonalLoop=1;jettySize=auto;html=1;entryX=0.583;entryY=-0.012;entryDx=0;entryDy=0;entryPerimeter=0;" parent="1" source="w9KCVopszYJ56_shnlxz-18" target="w9KCVopszYJ56_shnlxz-27" edge="1">
          <mxGeometry relative="1" as="geometry">
            <mxPoint x="100" y="40" as="targetPoint" />
            <Array as="points">
              <mxPoint x="100" y="40" />
              <mxPoint x="551" y="40" />
            </Array>
          </mxGeometry>
        </mxCell>
        <mxCell id="w9KCVopszYJ56_shnlxz-18" value="Fach" style="swimlane;childLayout=stackLayout;resizeParent=1;resizeParentMax=0;horizontal=1;startSize=20;horizontalStack=0;html=1;" parent="1" vertex="1">
          <mxGeometry x="40" y="80" width="120" height="120" as="geometry" />
        </mxCell>
        <mxCell id="w9KCVopszYJ56_shnlxz-19" value="&lt;div&gt;Variable&lt;/div&gt;" style="swimlane;startSize=20;horizontal=0;html=1;" parent="w9KCVopszYJ56_shnlxz-18" vertex="1">
          <mxGeometry y="20" width="120" height="100" as="geometry">
            <mxRectangle y="20" width="480" height="40" as="alternateBounds" />
          </mxGeometry>
        </mxCell>
        <mxCell id="w9KCVopszYJ56_shnlxz-22" value="&lt;div&gt;ID (PK)&lt;br&gt;&lt;/div&gt;&lt;div&gt;Name&lt;br&gt;&lt;/div&gt;" style="text;html=1;align=center;verticalAlign=middle;resizable=0;points=[];autosize=1;strokeColor=none;fillColor=none;" parent="w9KCVopszYJ56_shnlxz-19" vertex="1">
          <mxGeometry x="30" y="10" width="60" height="40" as="geometry" />
        </mxCell>
        <mxCell id="w9KCVopszYJ56_shnlxz-23" value="Themengebiet" style="swimlane;childLayout=stackLayout;resizeParent=1;resizeParentMax=0;horizontal=1;startSize=20;horizontalStack=0;html=1;" parent="1" vertex="1">
          <mxGeometry x="240" y="80" width="120" height="120" as="geometry" />
        </mxCell>
        <mxCell id="w9KCVopszYJ56_shnlxz-24" value="&lt;div&gt;Variable&lt;/div&gt;" style="swimlane;startSize=20;horizontal=0;html=1;" parent="w9KCVopszYJ56_shnlxz-23" vertex="1">
          <mxGeometry y="20" width="120" height="100" as="geometry">
            <mxRectangle y="20" width="480" height="40" as="alternateBounds" />
          </mxGeometry>
        </mxCell>
        <mxCell id="w9KCVopszYJ56_shnlxz-25" value="&lt;div&gt;ID (PK)&lt;br&gt;&lt;/div&gt;&lt;div&gt;ID_Fach (FK)&lt;br&gt;&lt;/div&gt;&lt;div&gt;Name&lt;br&gt;&lt;/div&gt;" style="text;html=1;align=center;verticalAlign=middle;resizable=0;points=[];autosize=1;strokeColor=none;fillColor=none;" parent="w9KCVopszYJ56_shnlxz-24" vertex="1">
          <mxGeometry x="10" width="100" height="60" as="geometry" />
        </mxCell>
        <mxCell id="w9KCVopszYJ56_shnlxz-27" value="Frage" style="swimlane;childLayout=stackLayout;resizeParent=1;resizeParentMax=0;horizontal=1;startSize=20;horizontalStack=0;html=1;" parent="1" vertex="1">
          <mxGeometry x="440" y="80" width="200" height="120" as="geometry" />
        </mxCell>
        <mxCell id="w9KCVopszYJ56_shnlxz-28" value="&lt;div&gt;Variable&lt;/div&gt;" style="swimlane;startSize=20;horizontal=0;html=1;" parent="w9KCVopszYJ56_shnlxz-27" vertex="1">
          <mxGeometry y="20" width="200" height="100" as="geometry">
            <mxRectangle y="20" width="480" height="40" as="alternateBounds" />
          </mxGeometry>
        </mxCell>
        <mxCell id="w9KCVopszYJ56_shnlxz-29" value="&lt;div&gt;ID (PK)&lt;/div&gt;&lt;div&gt;ID_Fach (FK)&lt;/div&gt;&lt;div&gt;ID_Themengebiet (FK)&lt;br&gt;&lt;/div&gt;&lt;div&gt;Name&lt;/div&gt;&lt;div&gt;Punkte&lt;br&gt;&lt;/div&gt;" style="text;html=1;align=center;verticalAlign=middle;resizable=0;points=[];autosize=1;strokeColor=none;fillColor=none;" parent="w9KCVopszYJ56_shnlxz-28" vertex="1">
          <mxGeometry x="30" width="150" height="90" as="geometry" />
        </mxCell>
        <mxCell id="w9KCVopszYJ56_shnlxz-30" value="Antwort" style="swimlane;childLayout=stackLayout;resizeParent=1;resizeParentMax=0;horizontal=1;startSize=20;horizontalStack=0;html=1;" parent="1" vertex="1">
          <mxGeometry x="707" y="80" width="120" height="120" as="geometry" />
        </mxCell>
        <mxCell id="w9KCVopszYJ56_shnlxz-31" value="&lt;div&gt;Variable&lt;/div&gt;" style="swimlane;startSize=20;horizontal=0;html=1;" parent="w9KCVopszYJ56_shnlxz-30" vertex="1">
          <mxGeometry y="20" width="120" height="100" as="geometry">
            <mxRectangle y="20" width="480" height="40" as="alternateBounds" />
          </mxGeometry>
        </mxCell>
        <mxCell id="w9KCVopszYJ56_shnlxz-32" value="&lt;div&gt;ID (PK)&lt;/div&gt;&lt;div&gt;ID_Frage (FK)&lt;br&gt;&lt;/div&gt;&lt;div&gt;Name&lt;br&gt;&lt;/div&gt;&lt;div&gt;Boolean: True&lt;br&gt;&lt;/div&gt;" style="text;html=1;align=center;verticalAlign=middle;resizable=0;points=[];autosize=1;strokeColor=none;fillColor=none;" parent="w9KCVopszYJ56_shnlxz-31" vertex="1">
          <mxGeometry x="20" width="100" height="70" as="geometry" />
        </mxCell>
        <mxCell id="w9KCVopszYJ56_shnlxz-41" value="1:n" style="text;html=1;strokeColor=none;fillColor=none;align=center;verticalAlign=middle;whiteSpace=wrap;rounded=0;" parent="1" vertex="1">
          <mxGeometry x="190" y="120" width="60" height="30" as="geometry" />
        </mxCell>
        <mxCell id="w9KCVopszYJ56_shnlxz-45" value="1:n" style="text;html=1;strokeColor=none;fillColor=none;align=center;verticalAlign=middle;whiteSpace=wrap;rounded=0;" parent="1" vertex="1">
          <mxGeometry x="390" y="110" width="60" height="30" as="geometry" />
        </mxCell>
        <mxCell id="w9KCVopszYJ56_shnlxz-49" value="1:n" style="text;html=1;strokeColor=none;fillColor=none;align=center;verticalAlign=middle;whiteSpace=wrap;rounded=0;" parent="1" vertex="1">
          <mxGeometry x="647" y="110" width="60" height="30" as="geometry" />
        </mxCell>
        <mxCell id="w9KCVopszYJ56_shnlxz-54" value="1:n" style="text;html=1;strokeColor=none;fillColor=none;align=center;verticalAlign=middle;whiteSpace=wrap;rounded=0;" parent="1" vertex="1">
          <mxGeometry x="270" y="10" width="60" height="30" as="geometry" />
        </mxCell>
        <mxCell id="pWjgWyEuvCj6_VRut513-2" value="" style="edgeStyle=entityRelationEdgeStyle;fontSize=12;html=1;endArrow=ERoneToMany;rounded=0;entryX=0.005;entryY=0.423;entryDx=0;entryDy=0;entryPerimeter=0;" edge="1" parent="1" target="w9KCVopszYJ56_shnlxz-24">
          <mxGeometry width="100" height="100" relative="1" as="geometry">
            <mxPoint x="160" y="180" as="sourcePoint" />
            <mxPoint x="240" y="150" as="targetPoint" />
          </mxGeometry>
        </mxCell>
        <mxCell id="pWjgWyEuvCj6_VRut513-3" value="" style="edgeStyle=entityRelationEdgeStyle;fontSize=12;html=1;endArrow=ERoneToMany;rounded=0;entryX=-0.017;entryY=0.359;entryDx=0;entryDy=0;entryPerimeter=0;" edge="1" parent="1" target="w9KCVopszYJ56_shnlxz-28">
          <mxGeometry width="100" height="100" relative="1" as="geometry">
            <mxPoint x="360" y="170" as="sourcePoint" />
            <mxPoint x="441" y="130" as="targetPoint" />
          </mxGeometry>
        </mxCell>
        <mxCell id="pWjgWyEuvCj6_VRut513-5" value="" style="edgeStyle=entityRelationEdgeStyle;fontSize=12;html=1;endArrow=ERoneToMany;rounded=0;entryX=-0.002;entryY=0.404;entryDx=0;entryDy=0;entryPerimeter=0;" edge="1" parent="1" target="w9KCVopszYJ56_shnlxz-31">
          <mxGeometry width="100" height="100" relative="1" as="geometry">
            <mxPoint x="640" y="180" as="sourcePoint" />
            <mxPoint x="721" y="140" as="targetPoint" />
          </mxGeometry>
        </mxCell>
      </root>
    </mxGraphModel>
  </diagram>
</mxfile>
